<svg width="171" height="133" viewBox="0 0 171 133" fill="none" xmlns="http://www.w3.org/2000/svg">
<path fill-rule="evenodd" clip-rule="evenodd" d="M83.6831 83.3212L42.75 67.9999C-2.98917e-05 -35.0001 42.75 87.3124 42.75 100.187C42.75 113.062 61.9875 119.5 85.4999 119.5C109.012 119.5 128.25 113.062 128.25 100.187V67.9999L87.3168 83.3212C86.0544 83.7081 84.7317 83.7081 83.4693 83.3212H83.6831ZM86.6756 1.04994C85.9792 0.791783 85.2345 0.791783 84.5381 1.04994L2.88559 31.6924C2.11706 31.9726 1.44376 32.5432 0.96522 33.3199C0.486683 34.0967 0.228315 35.0383 0.228315 36.0056C0.228315 36.9729 0.486683 37.9145 0.96522 38.6912C1.44376 39.4679 2.11706 40.0386 2.88559 40.3187L21.375 47.3999V70.1887C18.1687 72.3774 16.0312 76.6262 16.0312 81.2612C16.0312 83.7074 16.5656 85.8962 17.5275 87.6987C16.6725 89.5012 16.0312 91.6899 16.0312 94.1362V127.354C16.0312 134.435 37.4062 134.435 37.4062 127.354V94.1362C37.4062 91.6899 36.8718 89.5012 35.91 87.6987C36.765 85.8962 37.4062 83.7074 37.4062 81.2612C37.4062 76.3687 35.2687 72.3774 32.0625 70.1887V51.5199L84.3243 71.2187C84.9656 71.4762 85.8206 71.4762 86.4618 71.2187L168.114 40.5762C168.883 40.2961 169.556 39.7254 170.035 38.9487C170.513 38.172 170.772 37.2304 170.772 36.2631C170.772 35.2958 170.513 34.3542 170.035 33.5774C169.556 32.8007 168.883 32.2301 168.114 31.9499L86.5687 1.17869L86.6756 1.04994ZM85.7137 42.2499C79.8356 42.2499 75.0262 39.4174 75.0262 35.8124C75.0262 32.2074 79.8356 29.3749 85.7137 29.3749C91.5918 29.3749 96.4012 32.2074 96.4012 35.8124C96.4012 39.4174 91.5918 42.2499 85.7137 42.2499Z" fill="black"/>
</svg>
